# xmcd
#
# Track frame offsets:
#	182
#	8967
#	26572
#	54037
#	78975
#	107605
#	122480
#	163320
#	188090
#
# Disc length: 2942 seconds
#
# Revision: 1
# Processed by: cddbd v1.5.2PL0 Copyright (c) Steve Scherf et al.
# Submitted via: audiograbber 1.83.01
#
DISCID=630b7c09
DTITLE=The Stars Of Faith - Negro Spirituals
DYEAR=1987
DGENRE=gospel
TTITLE0=Wings Of A Dove
TTITLE1=There Must Be A Reason
TTITLE2=My Hope Is Built
TTITLE3=Waiting
TTITLE4=See The Sign Of The Judgement
TTITLE5=This Little Light Of Mine
TTITLE6=Jesus Is All The World To Me
TTITLE7=Goin'Up Yonder
TTITLE8=Battle Hymn Of The Republic
EXTD=2eme CD de la compilation
EXTT0=
EXTT1=
EXTT2=
EXTT3=
EXTT4=
EXTT5=
EXTT6=
EXTT7=
EXTT8=
PLAYORDER=
